<svg xmlns="http://www.w3.org/2000/svg" viewBox="0 0 100 100"><g id="art"><path d="M76.58,51.7a37.27,37.27,0,0,0-9.12-.46c1.61-2.64,3.08-5.26,4.37-7.72.75,2.36,4.07,4.67,8.57,3.27s7.48-6.79,8.45-8.58c-2.14-1.2-7.41-3.69-11.92-2.29a9.41,9.41,0,0,0-1.76.75A48.83,48.83,0,0,0,78,29.18a6.88,6.88,0,0,1-2.34-.31,6.26,6.26,0,0,1-1.89-1.35c-.3,1.78-2.83,7.38-6.71,13.83a8.33,8.33,0,0,0-1-4.12c-2.17-4.19-8-6.17-9.93-6.81-.8,2.31-2.34,7.94-.16,12.14,2,3.88,5.54,4.71,7.81,3.92-1.15,1.71-2.39,3.43-3.68,5.1-4.88,0-10-.86-13.23-4.85a11.08,11.08,0,0,1,.68-14.83.16.16,0,0,0-.23-.23c-7.28,6-6.36,17.94,2.08,22.41a21.79,21.79,0,0,0,6.83,2.17,48.18,48.18,0,0,1-8.16,7.37c-1.51,1-5.12-1.51-6-.44-3.13,4,1.08,13.11,1.08,13.11,7.67-3.23,14.85-11.1,20.68-19.55h.21c4.46,0,9.35-.16,13.22,1.67a14.45,14.45,0,0,1,2.29,1.33,11.16,11.16,0,0,1,1,1,1.58,1.58,0,0,1,.16.21c.16.22.3.44.44.67s.24.43.35.65.12.28.17.4A10.79,10.79,0,0,1,82,63.87c0,.2.09.41.13.61v.07c0,.6,0,1.21,0,1.82s0,1,0,1.48a.36.36,0,0,1,0-.1l0,.13a2.19,2.19,0,0,1-.06.33c0,.09,0,.18,0,.27q-.17.73-.39,1.44c-.07.24-.16.48-.24.71a1.09,1.09,0,0,1,0,.14.66.66,0,0,1-.06.12A22.2,22.2,0,0,1,80,73.2c.09-.17-.48.61-.66.81-.43.48-.89.94-1.37,1.38-.29.26-.59.51-.89.76.07-.07-.67.49-.88.63a28.53,28.53,0,0,1-3,1.75c-.46.24-.94.45-1.41.67l0,0-.67.27c-1.12.42-2.25.78-3.39,1.16-2.1.69-4.21,1.32-6.36,1.86C16.88,89.75,24.86,0,0,0V100c7.49,0,53.58.64,76.73-11.77.44-.23.86-.47,1.28-.72l.58-.33.58-.36a27.8,27.8,0,0,0,6.88-5.88,21,21,0,0,0,4.27-7.46C91.8,68.71,91.46,63.15,88.48,59A19.11,19.11,0,0,0,76.58,51.7Zm.58-12.53a.44.44,0,0,1,.62-.08.44.44,0,0,1,.08.62L76.38,41.6l3.05-1a.67.67,0,0,1,.06-.12l2.15-2.75a.44.44,0,0,1,.62-.08.44.44,0,0,1,.08.62l-1.48,1.89,5.35-1.66a.44.44,0,0,1,.56.29.44.44,0,0,1-.29.55l-3.16,1,2,.63a.44.44,0,0,1,.29.55.45.45,0,0,1-.56.29l-3.2-1-3.25,1,2,.62a.44.44,0,0,1-.26.85l-3.21-1-3.74,1.16a.45.45,0,0,1-.56-.29.44.44,0,0,1,.29-.55L75,42a.67.67,0,0,1,.06-.12Zm-13.9,6-.89-1.72a.61.61,0,0,1-.13,0l-3.09-1.64a.44.44,0,0,1,.42-.78l2.11,1.12-1.46-2.84a.5.5,0,0,1-.13,0L57,37.59a.44.44,0,0,1-.19-.6.46.46,0,0,1,.6-.18l2.12,1.12L57,33a.44.44,0,0,1,.79-.4l1.52,2.93.27-2.07A.44.44,0,0,1,60,33a.45.45,0,0,1,.38.5L60,36.86l1.56,3,.27-2.07a.44.44,0,0,1,.49-.38.43.43,0,0,1,.38.49l-.43,3.34,1.81,3.48a.45.45,0,0,1-.19.6A.44.44,0,0,1,63.26,45.15ZM82.15,64.26Z"/><path d="M82.17,67.85h0c-.1.4-.1.45-.07.36l.06-.33Z"/><path d="M88.45,7h0A10.35,10.35,0,0,0,87.33,7h0l-.49.08-.53.12a4.91,4.91,0,0,0-.51.15,4.84,4.84,0,0,0-.49.18,2.85,2.85,0,0,0-.31.12,7.18,7.18,0,0,0-.68.34l-.21.12c-.15.09-.3.18-.44.28l-.22.15L83,8.93,82.82,9h0c-.17.14-.34.3-.5.46l-.15.15c-.16.16-.31.32-.46.49l-.11.13c-.13.15-.25.31-.38.47l-.09.12c-.14.19-.28.38-.41.58l-.09.14-.39.61a13.46,13.46,0,0,1,.38,4.64,12.19,12.19,0,0,1,5.17-4.36l.56-.19.53-.14.13,0a8.25,8.25,0,0,1,5.16.71A8.62,8.62,0,0,1,96.6,9.18l-1-.48-.23-.1-1-.42h0l-.94-.34-.2-.07c-.32-.1-.63-.2-.94-.28h0l-.92-.22-.14,0A14.7,14.7,0,0,0,89.42,7h-.11l-.86,0Z"/><path d="M92.1,14l-.48-.22a7.11,7.11,0,0,0-4.4-.58l-.48.12-.56.19q-.3.12-.6.27c-1.91.94-3.7,2.84-5.35,5.68-.28.48-.55,1-.82,1.51-.07.15-.15.3-.23.46v0l0,.1c-.06.11-.11.23-.17.35l0,.12c-.08.17-.16.32-.23.49-.35.78-.7,1.6-1,2.48-.11.29-.22.6-.34.91s-.23.65-.35,1-.15.43-.22.65-.07.22-.11.31l.39.14a14,14,0,0,0,1.64.5c3.48.8,7.27-.09,11.73-7.44,1-1.69,3.93-2.92,6.54-3.32a19,19,0,0,0-4.34-3.48Z"/><path d="M72.93,13.16c-1.84,4.79-2.2,8.32-1.09,10.78a6.33,6.33,0,0,0,2.58,2.82,9.93,9.93,0,0,0,1.22.64,2.25,2.25,0,0,1,.08-.24c.15-.45.34-1,.58-1.69.35-1,.78-2.1,1.32-3.31l.22-.48.21-.45v0c.08-.15.15-.3.22-.46l.24-.47c.24-.45.48-.9.74-1.34a15.19,15.19,0,0,0,.22-5.29c0-.29-.11-.58-.17-.86s-.13-.49-.21-.73a9.51,9.51,0,0,0-.48-1.21A9.68,9.68,0,0,0,76,7.61l-.46-.36-.47-.34a18.19,18.19,0,0,0-5.42-2.35C72.46,8.66,73.69,11.2,72.93,13.16Z"/><path d="M76.27,6.45a10.84,10.84,0,0,1,3.3,3.93c.09.18.16.36.23.53.15-.23.32-.46.49-.68a.18.18,0,0,1,0-.07c.15-.21.32-.41.49-.61h0A11.42,11.42,0,0,1,82,8.33h0c.18-.16.37-.31.56-.46l0,0,.56-.4.19-.11.45-.27c.23-.13.46-.24.7-.35l.29-.11a4.39,4.39,0,0,0-.27-.47L84.43,6a2.75,2.75,0,0,0-.19-.28l-.16-.22-.16-.2L83.71,5l-.12-.14A11.47,11.47,0,0,0,82.1,3.53a15.54,15.54,0,0,0-2.85-1.69l-.15-.07-.64-.27-.23-.1-.62-.23-.27-.1L76.7.85,76.43.76,75.49.49A8.6,8.6,0,0,1,76.27,6.45Z"/><path d="M85.83,6.27a10.32,10.32,0,0,1,2.75-.37,3.7,3.7,0,0,0-5.66-3.07A10.6,10.6,0,0,1,85.83,6.27Z"/></g></svg>