<svg xmlns="http://www.w3.org/2000/svg" viewBox="0 0 100 100"><defs><style>.queen-cls-1{fill:#fff;}</style></defs><g id="eyes"><ellipse class="queen-cls-1" cx="44.99" cy="48.2" rx="11.72" ry="11.98"/></g><g id="art"><polygon points="53.77 23.56 69.45 31.32 79.76 24.11 71.25 23.99 74.33 12.27 63.58 16.05 63.48 3.93 53.79 11.21 50.26 0.38 42.81 9.93 37.56 3.24 38.09 15.81 53.77 23.56"/><path d="M95.72,58.69A20,20,0,0,0,84.53,41.47C60.31,29.59.89.38,0,0V100c7.66-.7,57.22-4,75.31-7.4a2.89,2.89,0,0,0,.94-5.34C68.09,82.4,55.08,73.45,59.07,70.79c7.11,3.51,22.61,8.34,32.71,6.8C95.42,75,96,66.26,95.72,58.69Zm-65-11.49C21,44.57,15,39.3,12.18,35.46c3.66,1.69,8.33,2.15,12.88,2C15.44,31,11.52,23.05,12.28,16.6c5.29,9.8,10.35,13.14,16.33,15-.57-1.9-2.73-7.46-1.93-12.17C29.91,28.76,40.81,31.91,45,33.77,41.59,33.07,29.41,36.54,30.73,47.2Zm19.6,9.39a2.45,2.45,0,1,1,2.45-2.45A2.45,2.45,0,0,1,50.33,56.59Zm6-6.9a8.17,8.17,0,0,0-8-6.66,8,8,0,0,0-1.48.14,4,4,0,0,1,.74,2.34,4.08,4.08,0,0,1-6.94,2.91,8,8,0,0,0-.5,2.78,8.17,8.17,0,0,0,6.66,8,10.92,10.92,0,0,1-1.73.14A11.42,11.42,0,1,1,56.46,48,11,11,0,0,1,56.31,49.69Z"/></g></svg>