<svg id="art" xmlns="http://www.w3.org/2000/svg" viewBox="0 0 100 100"><path d="M39.38,9.47C28.88,4.59,12.05,1.91,0,0V100c10.45-1.77,20.89-4,31.34-6a123.87,123.87,0,0,0,28.79-7.23l-.25,0c-10.19,1.51-28.7,3.06-37.12-24.72,2.62-2,16.35-7.31,25.77-7,12.77.36,20.9,8.81,25.69,9.49,3,.44,9.1,1.3,14.78,1.55C94.13,59.55,96.58,53.5,98.49,50,71.15,36.21,61.78,19.87,39.38,9.47ZM5.86,37.06,18.07,22.45l-7.9,16.49L11.48,57Zm12.2,5.46-.18,14.65L14.33,40.89,24,25.6ZM36.84,28.13c6.09-1.34,9.56,1.13,12.47,4.3h0a4.46,4.46,0,1,0,4.56,5.23,13,13,0,0,0,4.55,3.28C48.06,47.37,32.45,42.77,36.84,28.13Z"/><polygon points="76.52 66.88 69.65 71.85 68.75 63.83 61.01 69.08 59.81 61.19 49.66 67.88 49.23 61.94 40.33 68.32 41.65 62.51 26.61 65.25 35.61 67.99 33.31 72.49 43.72 71.75 43.93 77.56 52.88 72.54 51.36 78.95 63.73 74.09 59.88 82.62 67.23 77.27 64.94 84.65 83 70.26 75.38 72.35 76.52 66.88"/></svg>